<?xml version="1.0" encoding="utf-8"?>

<!DOCTYPE svg PUBLIC "-//W3C//DTD SVG 1.1//EN" "http://www.w3.org/Graphics/SVG/1.1/DTD/svg11.dtd">
<svg version="1.1" id="Layer_1" xmlns="http://www.w3.org/2000/svg" xmlns:xlink="http://www.w3.org/1999/xlink" x="0px" y="0px"
	 viewBox="0 0 844.2312 1356.3588" enable-background="new 0 0 844.2312 1356.3588" xml:space="preserve">
<g>
	<path d="M194.1394,968.1282c-3.6575,2.2936-6.7479,4.429-10.0146,6.2477c-20.8479,11.6067-42.5205,21.3119-66.0099,26.0649
		c-15.2723,3.0905-30.8105,3.722-45.8512-1.3807c-22.2867-7.5614-35.9908-23.2056-39.1901-46.4908
		c-5.0833-36.998,4.5423-70.5846,27.2853-99.9888c13.8521-17.9093,31.9532-28.8929,55.4356-30.5718
		c23.2195-1.6602,43.081,3.8121,57.9742,22.6188c3.8283,4.8342,6.9793,10.15,8.86,16.0941
		c0.6253,1.9763,2.7186,4.1672-0.7097,5.7898c-5.0935,2.411-7.7943,2.0825-9.6764-1.5974
		c-2.5123-4.9122-5.4598-9.4915-9.1461-13.6262c-17.2102-19.3041-45.7284-21.4268-68.9126-8.1497
		c-17.9476,10.2783-28.5774,26.3038-36.553,44.647c-6.8374,15.7255-10.4262,32.2892-10.2492,49.2729
		c0.1372,13.1676,1.1823,26.6978,10.8367,37.3901c11.5195,12.7579,26.591,15.3257,42.4543,13.4543
		c21.1694-2.4973,40.5626-10.9792,59.7509-19.8389c10.4369-4.8191,20.2491-10.7184,30.1499-16.494
		c2.2777-1.3289,3.0912-2.7437,3.1872-5.4274c0.8123-22.704,4.4014-45.1326,6.9524-67.6655
		c0.2522-2.2281,1.3008-3.3159,3.5443-3.2332c0.3327,0.0123,0.6668,0.0039,0.9998-0.0085
		c17.0671-0.6393,17.7281,0.0568,15.2739,17.9487c-2.1613,15.757-4.1693,31.4998-5.013,47.4189
		c-1.658,31.2837,1.6005,61.8568,11.146,91.7537c7.3737,23.0948,20.1497,42.9485,36.4629,60.5425
		c16.1252,17.3911,34.5944,31.9579,55.4587,43.3873c34.9285,19.1338,72.5073,30.009,111.6532,36.1683
		c25.6412,4.0345,51.3945,6.4427,77.3531,5.6028c15.5684-0.5037,31.1323-2.2214,46.3879-5.079
		c29.7025-5.5635,59.0391-12.8085,86.2189-26.6715c37.4363-19.0942,67.9492-46.1422,92.4638-80.2345
		c18.6144-25.887,32.0572-54.254,41.9101-84.4216c8.4005-25.7208,14.576-51.9504,18.2864-78.7992
		c3.6527-26.432,4.026-52.9661,3.7925-79.5532c-0.0232-2.6504-0.2567-5.3036-0.4978-7.946c-0.244-2.675,0.7957-3.7328,3.5553-4.1865
		c6.4219-1.0564,8.3842-1.2693,9.16,6.5309c1.3296,13.3647,2.3146,26.7278,3.2363,40.1234
		c0.9072,13.1862-0.0072,26.2518-0.7559,39.2834c-1.3121,22.8427-5.8163,45.2313-11.2522,67.5084
		c-8.408,34.4567-20.4918,67.2515-39.1526,97.5497c-29.105,47.2562-68.3776,83.2523-118.4411,107.2538
		c-18.7878,9.0072-39.0211,14.0703-58.9545,19.7247c-21.4124,6.0741-43.5023,8.5558-65.6786,10.1796
		c-19.1097,1.3995-38.2231,1.267-57.3007-0.0818c-46.2361-3.2687-90.8196-13.1703-133.0437-32.963
		c-25.8713-12.1273-48.9359-28.146-69.4161-47.8754c-28.0164-26.9895-47.3835-59.1218-56.4903-97.1935
		C197.4932,1003.9561,195.0755,986.4787,194.1394,968.1282z"/>
	<path d="M622.1788,897.0825c-20.2952,0-40.6157,0.6183-60.8769-0.2128c-13.9648-0.5729-27.9213-0.2112-41.8771-0.8572
		c-23.2109-1.0743-46.4265-1.8809-69.6227-3.4128c-21.0146-1.3881-41.9959-3.0099-62.9147-5.3734
		c-39.3966-4.4513-78.5848-10.082-116.6072-21.8822c-12.8627-3.9921-23.9974-11.434-35.2478-18.4237
		c-7.9314-4.9276-7.5387-21.6708-0.1688-27.8113c10.1961-8.4952,22.4234-12.8984,34.8042-16.6733
		c34.2242-10.4351,69.4063-16.0822,104.8719-20.1677c23.0566-2.656,46.176-4.5073,69.3333-6.0916
		c32.1335-2.1985,64.2446-4.4302,96.482-4.4388c15.9573-0.0042,31.9239-1.2694,47.8695-0.9943
		c27.0744,0.4672,54.1662,1.1743,81.1947,2.7448c35.3984,2.057,70.6923,5.4536,105.2846,13.8307
		c1.7623,0.4269,5.304-0.6914,4.6621,3.3608c-0.7056,4.4534-4.5386,8.4688-7.532,8.0868
		c-17.2745-2.2045-34.6011-3.6422-52.0002-4.6442c-23.2974-1.3417-46.6009-0.2048-69.8692-1.0917
		c-10.972-0.4182-21.9484-0.9017-32.887-0.4961c-17.1206,0.635-34.249,0.4174-51.3605,1.0123
		c-22.0651,0.7671-44.1376,1.5348-66.1749,2.8409c-28.6353,1.6971-57.2727,3.5383-85.8491,6.0122
		c-43.5923,3.774-87.0994,8.4135-129.9291,17.8145c-11.199,2.458-22.1932,5.6934-32.8808,9.8973
		c-2.9971,1.179-8.1796,1.687-7.8238,4.7623c0.4365,3.7726,4.381,6.9927,8.549,8.2247c10.6424,3.146,21.2959,6.2432,32.2417,8.2815
		c26.082,4.8571,52.2624,8.8486,78.7167,11.1744c16.5225,1.4526,33.0495,2.6981,49.5947,3.825
		c22.688,1.5453,45.3885,2.5525,68.117,3.3153c16.1221,0.5414,32.2415,0.673,48.3596,1.0701
		c48.3028,1.1898,96.6088,0.4409,144.9111,0.4183c24.2589-0.0114,48.5312-0.9761,72.767-2.1416
		c6.8397-0.3291,9.8179,2.467,12.1298,8.1094c3.862,9.4253,3.4803,10.2125-6.6597,11.1525
		c-23.2654,2.1569-46.5097,4.399-69.8785,5.4094C661.9991,894.574,642.124,896.221,622.1788,897.0825z"/>
	<path d="M595.8672,65.8782c-36.195,1.5552-70.6257,9.5511-101.668,29.0934c-11.0676,6.9675-20.4286,15.7738-26.2376,27.9605
		c-4.4553,9.3468-1.6366,20.1205,5.1483,27.5644c10.9377,11.9999,25.321,18.718,39.6255,25.3895
		c26.1705,12.2059,53.5155,22.0272,78.0934,37.4501c14.9094,9.3559,28.7281,20.1046,39.3887,34.5827
		c10.9371,14.8536,11.2108,30.1724,3.0383,45.8367c-9.1034,17.4487-23.985,29.628-39.9239,40.3593
		c-26.6198,17.9226-54.5493,33.6545-83.1634,48.1805c-27.8667,14.1465-55.544,28.641-80.8875,47.1143
		c-4.9739,3.6255-9.6457,7.6615-13.2744,12.7229c-6.2561,8.7261-4.6274,14.3657,5.0233,19.4065
		c18.3275,9.573,38.2812,14.0154,58.1374,18.7333c22.7338,5.4016,45.6254,10.1107,67.802,17.7124
		c13.9675,4.7879,26.9375,11.1215,38.465,20.4559c9.3256,7.5515,13.0989,22.7004,8.4998,35.6458
		c-4.7944,13.4951-14.0197,23.9792-23.2184,34.5014c-13.2211,15.1232-27.7877,29.0782-38.8942,46.0406
		c-3.4304,5.239-5.9738,10.7084-7.9293,16.5105c-2.7662,8.2068-0.2643,15.6792,6.6412,21.251
		c10.566,8.5252,23.3962,11.517,36.087,14.8616c0.4809,0.1266,1.0474,0.0497,1.4658,0.2717
		c2.4657,1.308,7.1359,0.1445,7.3384,3.4551c0.2758,4.5125-2.9042,8.2941-6.1201,11.5377
		c-0.6333,0.6388-1.4143,0.6296-2.2985,0.3077c-15.0903-5.4946-30.7223-9.6732-43.7409-19.8694
		c-10.7165-8.3932-16.884-25.076-11.9861-39.3013c5.4815-15.9203,15.1721-28.973,26.0378-41.4015
		c12.7993-14.64,27.6788-27.3829,39.2918-43.0998c1.379-1.8663,2.5825-3.8625,3.8633-5.8012
		c6.3442-9.6027,3.9955-17.5361-6.0573-24.656c-15.1561-10.7345-32.9843-15.4602-50.5978-20.2913
		c-26.7205-7.3291-53.8676-13.0556-80.1652-21.994c-13.1307-4.4631-24.7036-11.4854-35.4522-19.8981
		c-9.8283-7.6925-11.1717-23.3584-3.3765-34.8723c7.5973-11.2216,18.3785-19.0883,29.2485-26.7747
		c22.046-15.5892,45.969-27.9516,69.792-40.493c28.0734-14.7792,56.662-28.6215,83.5448-45.5815
		c10.4394-6.5861,20.0571-14.1786,28.6034-23.1428c13.4981-14.1581,13.3065-28.4038-0.2038-42.4868
		c-13.7767-14.3608-30.1528-24.9932-47.7403-33.7799c-20.8041-10.3938-42.0256-19.9505-62.8684-30.2696
		c-11.1528-5.5217-22.2344-11.3808-31.5781-19.8177c-10.4218-9.4104-18.7206-20.32-20.6611-34.6761
		c-1.2152-8.9906,1.5157-17.4975,6.0135-25.2271c10.8051-18.5686,27.5979-30.2164,46.4964-39.2325
		c16.8909-8.0583,34.7666-13.4162,53.1505-16.1882c28.275-4.2635,56.5814-5.2521,83.8106,6.1819
		c8.6257,3.6221,16.9929,7.8201,23.433,14.8062c13.8798,15.0563,11.4965,33.4488-2.0657,48.131
		c-11.2382,12.1663-25.917,17.6327-41.8237,20.2659c-11.8865,1.9677-23.7852,2.0602-35.5529-0.9614
		c-5.8638-1.5057-11.3289-4.0885-15.7497-8.1765c-7.0986-6.5641-6.5427-17.0684,0.9865-24.3549
		c1.9025-1.8412,4.014-3.4896,6.1517-5.0602c4.9455-3.6337,6.3228-3.2834,10.1903,1.5515c1.8174,2.2719,1.5283,3.4978-0.8917,5.0144
		c-3.239,2.03-6.196,4.5172-8.5017,7.6239c-3.7513,5.0544-2.9465,8.0698,2.9088,10.2735
		c14.279,5.3741,28.7347,4.1604,43.0845,0.5029c12.0871-3.0807,23.1412-8.2583,31.7822-17.6984
		c3.4496-3.7686,5.956-8.1246,6.9505-13.0108c1.3096-6.434-1.4666-11.6624-6.3488-15.841
		c-11.4316-9.784-25.3315-13.449-39.6815-15.9481C610.2371,66.0383,603.0931,65.9026,595.8672,65.8782z"/>
	<path d="M722.028,1250.2051c-25.1322-11.7747-51.4949-14.6174-77.9658-16.9639c-10.7175-0.95-21.4214-2.1013-32.1555-2.7855
		c-3.2638-0.2079-3.5768-1.7324-3.1972-4.0955c0.7686-4.7841,2.2889-9.3129,4.6807-13.5737
		c0.8882-1.5824,1.9931-2.1003,3.6218-1.953c27.0668,2.4478,54.1665,4.7461,80.3966,12.5006
		c11.1656,3.3008,22.3375,6.8566,30.9952,15.1901c11.4001,10.9733,8.6753,24.3762-5.3699,31.9341
		c-18.9583,10.2015-39.7404,13.6951-60.3773,17.7406c-27.9769,5.4844-56.295,8.5638-84.6746,11.1654
		c-20.9725,1.9226-41.9764,3.1556-62.9982,4.3591c-28.7639,1.6466-57.5364,1.8307-86.31,1.48
		c-22.7399-0.2771-45.5331-0.3756-68.1567-3.0834c-26.3348-3.152-52.6776-6.4922-77.754-15.8467
		c-10.9828-4.097-21.0029-9.6957-29.414-18.1727c-9.0823-9.1538-12.1776-23.4977-3.7128-37.2174
		c10.8405-17.5703,27.5903-27.3973,45.5439-35.7161c11.4685-5.3138,23.6334-8.771,35.5957-12.7655
		c4.4406-1.4829,5.5235,1.5487,6.9264,4.3593c3.2186,6.4482,2.8902,7.4188-3.5935,10.1489
		c-17.2878,7.28-34.7967,14.0953-50.3519,24.891c-8.1263,5.6399-15.4098,12.0728-20.9368,20.4058
		c-3.8248,5.7666-3.3661,11.4065,1.8519,15.9166c5.5329,4.7827,12.2745,7.2054,19.1141,9.2898
		c18.6586,5.686,37.9047,8.0127,57.2405,9.7866c27.6565,2.5371,55.388,3.7274,83.1327,2.9531
		c18.4642-0.5151,36.9381-0.1409,55.3845-0.9603c25.695-1.1415,51.3909-2.3549,77.0609-3.9478
		c31.4313-1.9507,62.8727-4.1394,94.1007-8.202c20.7945-2.7053,41.9014-4.2551,61.8525-11.6801
		C715.8153,1254.1503,718.9755,1252.8877,722.028,1250.2051z"/>
	<path d="M726.8806,835.6434c-6.8936-2.6278-14.4979-1.7336-21.7861-1.973c-20.7963-0.6827-41.6567-0.9188-62.4407-0.0737
		c-24.1341,0.9814-48.2612,0.0764-72.3797,0.8966c-29.2268,0.994-58.4594,1.8207-87.6849,2.8503
		c-15.7565,0.5553-31.5043,1.3667-47.2538,2.1102c-1.9716,0.093-3.9329,0.4526-5.8929,0.7316
		c-3.551,0.5051-5.8624-0.3307-6.9866-4.3394c-1.8363-6.548-2.0813-6.4567,4.8613-7.6509
		c29.5931-5.0903,59.4054-8.1295,89.3687-9.9504c14.9254-0.9072,29.8611-1.4685,44.7876-2.2129
		c14.6338-0.7299,29.2733-0.3103,43.8732-1.027c22.619-1.11,45.2164-0.1787,67.7702,0.6235
		c28.1407,1.001,56.3284,2.8171,83.6613,10.6764c1.4294,0.4111,2.9265,0.7693,4.2048,1.4862
		c2.7695,1.5533,6.6384,2.175,6.6317,6.4883c-0.0077,4.9609-3.2542,9.6262-7.8049,11.0459
		c-8.4259,2.6285-17.1789,3.7111-25.8907,4.6799c-21.0938,2.3461-42.2575,3.9161-63.4288,5.465
		c-17.5369,1.283-35.102,1.8702-52.6329,3.1082c-2.851,0.2014-4.7925-0.5184-5.799-3.385
		c-1.3751-3.9166-2.8516-7.7675-2.8314-12.031c0.0098-2.0648,0.5751-2.8734,2.8185-2.9802
		c12.59-0.5985,25.1638-1.5823,37.7574-2.0516C675.545,837.1707,701.2963,836.4545,726.8806,835.6434z"/>
</g>
</svg>
