<svg id="Icons" height="512" viewBox="0 0 74 74" width="512" xmlns="http://www.w3.org/2000/svg"><path fill="white"  d="m67.751 60.354h-61.502a4.254 4.254 0 0 1 -4.249-4.249v-39.349a4.253 4.253 0 0 1 4.249-4.248h61.5a4.253 4.253 0 0 1 4.251 4.248v39.349a4.254 4.254 0 0 1 -4.249 4.249zm-61.502-45.846a2.251 2.251 0 0 0 -2.249 2.248v39.349a2.252 2.252 0 0 0 2.249 2.249h61.5a2.252 2.252 0 0 0 2.251-2.249v-39.349a2.251 2.251 0 0 0 -2.249-2.248z"/><path fill="white"  d="m37 39.132a4.6 4.6 0 0 1 -2.769-.92l-30.701-23.112a1 1 0 0 1 1.2-1.6l30.7 23.113a2.616 2.616 0 0 0 3.132 0l30.705-23.113a1 1 0 0 1 1.2 1.6l-30.7 23.113a4.6 4.6 0 0 1 -2.767.919z"/><path fill="white"  d="m3.684 59.093a1 1 0 0 1 -.647-1.763l27.58-23.367a1 1 0 1 1 1.293 1.526l-27.58 23.367a.993.993 0 0 1 -.646.237z"/><path fill="white"  d="m70.316 59.093a.993.993 0 0 1 -.646-.237l-27.58-23.367a1 1 0 1 1 1.293-1.526l27.58 23.367a1 1 0 0 1 -.647 1.763z"/></svg>